{"title":"Phantom (2015) DVDSCR - x264 - AAC {VikkyMaxx}[CTRC]","uid":12307808,"size":740269157,"categoryP":"video","categoryS":"movies","magnet":"?xt=urn:btih:345fb1d26f8b11d8ff9673f22e922c33cf8d044d&amp;dn=Phantom+%282015%29+DVDSCR+-+x264+-+AAC+%7BVikkyMaxx%7D%5BCTRC%5D&amp;tr=udp%3A%2F%2Ftracker.openbittorrent.com%3A80&amp;tr=udp%3A%2F%2Fopen.demonii.com%3A1337&amp;tr=udp%3A%2F%2Ftracker.coppersurfer.tk%3A6969&amp;tr=udp%3A%2F%2Fexodus.desync.com%3A6969","seeders":3,"leechers":6,"uploader":"shailendramaxx","files":22,"time":1440829609,"description":"VikkyMaxx Presents :-\n\nPhantom (2015) DVDSCR - x264 - AAC {VikkyMaxx}[CTRC]\n\nIMDB :- http://www.imdb.com/title/tt3469244\n\nRatings :- 4.3/10 \n\nPlot :- A disgraced Indian soldier carries out a series of assassinations in the hope of restoring his honour.\n\nCast :- Saif Ali Khan, Katrina Kaif, Rajesh Tailang \n\nGeneral:- \n \nComplete name : Phantom (2015) DVDSCR - x264 - AAC {VikkyMaxx}[CTRC]\nFormat : Matroska \nFormat version : Version 2 \nFile size : 698 MiB \nDuration : 2h 14mn \nOverall bit rate mode : Variable \nOverall bit rate : 727 Kbps \nEncoded date : UTC 2015-08-29 03:18:13 \nWriting application : mkvmerge v7.7.0 ('Six Voices') 32bit built on Feb 28 2015 23:23:00 \nWriting library : libebml v1.3.1 + libmatroska v1.4.2 \nDURATION : 02:14:07.824000000 \nNUMBER_OF_FRAMES : 335326 \nNUMBER_OF_BYTES : 118874736 \nSTATISTICS_WRITING_APP : mkvmerge v7.7.0 ('Six Voices') 32bit built on Feb 28 2015 23:23:00 \nSTATISTICS_WRITING_DATE_UTC : 2015-08-29 03:18:13 \nSTATISTICS_TAGS : BPS DURATION NUMBER_OF_FRAMES NUMBER_OF_BYTES \nSource : M2TV ( Thanks A Ton)\n\nVideo:-\n \nID : 1 \nFormat : AVC \nFormat/Info : Advanced Video Codec \nFormat profile : &lt;a class=&quot;__cf_email__&quot; href=&quot;/cdn-cgi/l/email-protection&quot; data-cfemail=&quot;c58daca2ad8589f7ebf4&quot;&gt;[email&amp;#160;protected]&lt;/a&gt;&lt;script data-cfhash='f9e31' type=&quot;text/javascript&quot;&gt;\n/* &lt;![CDATA[ */!function(){try{var t=&quot;currentScript&quot;in document?document.currentScript:function(){for(var t=document.getElementsByTagName(&quot;script&quot;),e=t.length;e--;)if(t[e].getAttribute(&quot;data-cfhash&quot;))return t[e]}();if(t&amp;&amp;t.previousSibling){var e,r,n,i,c=t.previousSibling,a=c.getAttribute(&quot;data-cfemail&quot;);if(a){for(e=&quot;&quot;,r=parseInt(a.substr(0,2),16),n=2;a.length-n;n+=2)i=parseInt(a.substr(n,2),16)^r,e+=String.fromCharCode(i);e=document.createTextNode(e),c.parentNode.replaceChild(e,c)}t.parentNode.removeChild(t);}}catch(u){}}()/* ]]&gt; */&lt;/script&gt; \nFormat settings, CABAC : Yes \nFormat settings, ReFrames : 4 frames \nCodec ID : V_MPEG4/ISO/AVC \nDuration : 2h 14mn \nBit rate : 607 Kbps \nWidth : 640 pixels \nHeight : 272 pixels \nDisplay aspect ratio : 2.35:1 \nFrame rate mode : Constant \nFrame rate : 25.000 fps \nColor space : YUV \nChroma subsampling : 4:2:0 \nBit depth : 8 bits \nScan type : Progressive \nBits/(Pixel*Frame) : 0.139 \nStream size : 571 MiB (82%) \nWriting library : x264 core 146 r2538 121396c \nEncoding settings : cabac=1 / ref=3 / deblock=1:0:0 \nDefault : Yes \nForced : No \n\nAudio:-\n \nID : 2 \nFormat : MPEG Audio \nFormat version : Version 1 \nFormat profile : Layer 3 \nMode : Joint stereo \nMode extension : MS Stereo \nCodec ID : A_MPEG/L3 \nCodec ID/Hint : MP3 \nDuration : 2h 14mn \nBit rate mode : Variable \nBit rate : 118 Kbps \nMinimum bit rate : 32.0 Kbps \nChannel(s) : 2 channels \nSampling rate : 48.0 KHz \nCompression mode : Lossy \nStream size : 113 MiB (16%) \nWriting library : LAME3.99r \nEncoding settings : -m j -V 4 -q 0 -lowpass 17.5 --vbr-new -b 32 \nDefault : Yes \nLanguage : Hindi\n\n\nSCREENS :-\n &lt;a href=&quot;\nhttp://i.imgur.com/X8T2KsW.png&quot; rel=&quot;nofollow&quot; target=&quot;_NEW&quot;&gt;\nhttp://i.imgur.com/X8T2KsW.png&lt;/a&gt;\n &lt;a href=&quot;\nhttp://i.imgur.com/9RPd4Di.png&quot; rel=&quot;nofollow&quot; target=&quot;_NEW&quot;&gt;\nhttp://i.imgur.com/9RPd4Di.png&lt;/a&gt;\n &lt;a href=&quot;\nhttp://i.imgur.com/GgMSAoA.png&quot; rel=&quot;nofollow&quot; target=&quot;_NEW&quot;&gt;\nhttp://i.imgur.com/GgMSAoA.png&lt;/a&gt;\n &lt;a href=&quot;\nhttp://i.imgur.com/zovxeap.png&quot; rel=&quot;nofollow&quot; target=&quot;_NEW&quot;&gt;\nhttp://i.imgur.com/zovxeap.png&lt;/a&gt;\n &lt;a href=&quot;\nhttp://i.imgur.com/0yelIks.png&quot; rel=&quot;nofollow&quot; target=&quot;_NEW&quot;&gt;\nhttp://i.imgur.com/0yelIks.png&lt;/a&gt;\n &lt;a href=&quot;\nhttp://i.imgur.com/ytNO7c2.png&quot; rel=&quot;nofollow&quot; target=&quot;_NEW&quot;&gt;\nhttp://i.imgur.com/ytNO7c2.png&lt;/a&gt;\n &lt;a href=&quot;\nhttp://i.imgur.com/w181mQI.png&quot; rel=&quot;nofollow&quot; target=&quot;_NEW&quot;&gt;\nhttp://i.imgur.com/w181mQI.png&lt;/a&gt;\n &lt;a href=&quot;\nhttp://i.imgur.com/qTwPgx8.png&quot; rel=&quot;nofollow&quot; target=&quot;_NEW&quot;&gt;\nhttp://i.imgur.com/qTwPgx8.png&lt;/a&gt;\n &lt;a href=&quot;\nhttp://i.imgur.com/69a3fDA.png&quot; rel=&quot;nofollow&quot; target=&quot;_NEW&quot;&gt;\nhttp://i.imgur.com/69a3fDA.png&lt;/a&gt;\n &lt;a href=&quot;\nhttp://i.imgur.com/iR6ZWXC.png&quot; rel=&quot;nofollow&quot; target=&quot;_NEW&quot;&gt;\nhttp://i.imgur.com/iR6ZWXC.png&lt;/a&gt;\n &lt;a href=&quot;\nhttp://i.imgur.com/hNxIrUJ.png&quot; rel=&quot;nofollow&quot; target=&quot;_NEW&quot;&gt;\nhttp://i.imgur.com/hNxIrUJ.png&lt;/a&gt;\n &lt;a href=&quot;\nhttp://i.imgur.com/eDKUoel.png&quot; rel=&quot;nofollow&quot; target=&quot;_NEW&quot;&gt;\nhttp://i.imgur.com/eDKUoel.png&lt;/a&gt;\n\n              ********** PLEASE SEED AS LONG AS YOU CAN AFTER DOWNLOAD **********\n                       \n                              ***** THANK YOU REGARDS - VikkyMaxx *****","torrent":{"xt":"urn:btih:345fb1d26f8b11d8ff9673f22e922c33cf8d044d","amp;dn":"Phantom+%282015%29+DVDSCR+-+x264+-+AAC+%7BVikkyMaxx%7D%5BCTRC%5D","amp;tr":["udp%3A%2F%2Ftracker.openbittorrent.com%3A80","udp%3A%2F%2Fopen.demonii.com%3A1337","udp%3A%2F%2Ftracker.coppersurfer.tk%3A6969","udp%3A%2F%2Fexodus.desync.com%3A6969"],"infoHash":"345fb1d26f8b11d8ff9673f22e922c33cf8d044d","infoHashBuffer":{"type":"Buffer","data":[52,95,177,210,111,139,17,216,255,150,115,242,46,146,44,51,207,141,4,77]},"announce":[],"urlList":[]}}